<svg width="21" height="20" viewBox="0 0 21 20" fill="none" xmlns="http://www.w3.org/2000/svg">
<path d="M10.333 20C4.81016 20 0.333008 15.5228 0.333008 10C0.333008 4.47715 4.81016 0 10.333 0C15.8558 0 20.333 4.47715 20.333 10C20.333 15.5228 15.8558 20 10.333 20ZM10.333 18C14.7513 18 18.333 14.4183 18.333 10C18.333 5.58172 14.7513 2 10.333 2C5.91473 2 2.33301 5.58172 2.33301 10C2.33301 14.4183 5.91473 18 10.333 18ZM10.333 8.5858L13.1614 5.75736L14.5756 7.17157L11.7472 10L14.5756 12.8284L13.1614 14.2426L10.333 11.4142L7.50458 14.2426L6.09037 12.8284L8.91881 10L6.09037 7.17157L7.50458 5.75736L10.333 8.5858Z" fill="#E51C26"/>
</svg>
