<svg width="21" height="20" viewBox="0 0 21 20" fill="none" xmlns="http://www.w3.org/2000/svg">
<path d="M0.5 20C0.5 15.7921 3.91116 12.381 8.11905 12.381C12.327 12.381 15.7381 15.7921 15.7381 20H13.8333C13.8333 16.8441 11.275 14.2857 8.11905 14.2857C4.96313 14.2857 2.40476 16.8441 2.40476 20H0.5ZM8.11905 11.4286C4.9619 11.4286 2.40476 8.87143 2.40476 5.71429C2.40476 2.55714 4.9619 0 8.11905 0C11.2762 0 13.8333 2.55714 13.8333 5.71429C13.8333 8.87143 11.2762 11.4286 8.11905 11.4286ZM8.11905 9.52381C10.2238 9.52381 11.9286 7.81905 11.9286 5.71429C11.9286 3.60952 10.2238 1.90476 8.11905 1.90476C6.01429 1.90476 4.30952 3.60952 4.30952 5.71429C4.30952 7.81905 6.01429 9.52381 8.11905 9.52381ZM16.0083 13.0503C18.6566 14.2439 20.5 16.9067 20.5 20H18.5952C18.5952 17.68 17.2127 15.683 15.2265 14.7877L16.0083 13.0503ZM15.3535 2.2983C17.2566 3.08289 18.5952 4.95582 18.5952 7.14286C18.5952 9.87638 16.504 12.1192 13.8333 12.3596V10.4425C15.4492 10.2116 16.6905 8.82286 16.6905 7.14286C16.6905 5.82795 15.9301 4.69146 14.8248 4.1489L15.3535 2.2983Z" fill="#050505"/>
</svg>
