<svg width="20" height="22" viewBox="0 0 20 22" fill="none" xmlns="http://www.w3.org/2000/svg">
<path d="M16.7059 8.18605C16.7059 4.79527 13.7035 2.04651 9.99998 2.04651C6.29643 2.04651 3.29411 4.79527 3.29411 8.18605V16.3721H16.7059V8.18605ZM18.9411 17.0543L19.3882 17.6C19.5734 17.826 19.5233 18.1467 19.2764 18.3163C19.1798 18.3827 19.0621 18.4186 18.9411 18.4186H1.05882C0.750196 18.4186 0.5 18.1895 0.5 17.907C0.5 17.7963 0.539218 17.6885 0.611764 17.6L1.05882 17.0543V8.18605C1.05882 3.66502 5.06191 0 9.99998 0C14.9381 0 18.9411 3.66502 18.9411 8.18605V17.0543ZM7.20587 19.4419H12.7941C12.7941 20.8547 11.5431 22 9.99998 22C8.45685 22 7.20587 20.8547 7.20587 19.4419Z" fill="#050505"/>
</svg>
