<svg width="15" height="15" viewBox="0 0 15 15" fill="none" xmlns="http://www.w3.org/2000/svg">
<path d="M10.6999 13.1752V1.9752H2.2999V12.4752C2.2999 12.8618 2.61331 13.1752 2.9999 13.1752H10.6999ZM12.7999 14.5752H2.9999C1.84011 14.5752 0.899902 13.635 0.899902 12.4752V1.2752C0.899902 0.888599 1.21331 0.575195 1.5999 0.575195H11.3999C11.7865 0.575195 12.0999 0.888599 12.0999 1.2752V6.1752H14.8999V12.4752C14.8999 13.635 13.9597 14.5752 12.7999 14.5752ZM12.0999 7.5752V12.4752C12.0999 12.8618 12.4133 13.1752 12.7999 13.1752C13.1865 13.1752 13.4999 12.8618 13.4999 12.4752V7.5752H12.0999ZM3.6999 3.3752H7.8999V7.5752H3.6999V3.3752ZM5.0999 4.7752V6.1752H6.4999V4.7752H5.0999ZM3.6999 8.2752H9.2999V9.67519H3.6999V8.2752ZM3.6999 10.3752H9.2999V11.7752H3.6999V10.3752Z" fill="#00A551"/>
</svg>
