<svg width="15" height="15" viewBox="0 0 15 15" fill="none" xmlns="http://www.w3.org/2000/svg">
<path d="M0.150391 14.7246C0.150391 11.7791 2.5382 9.39128 5.48372 9.39128C8.42926 9.39128 10.8171 11.7791 10.8171 14.7246H9.48372C9.48372 12.5155 7.69286 10.7246 5.48372 10.7246C3.27458 10.7246 1.48372 12.5155 1.48372 14.7246H0.150391ZM5.48372 8.72461C3.27372 8.72461 1.48372 6.93461 1.48372 4.72461C1.48372 2.51461 3.27372 0.724609 5.48372 0.724609C7.69372 0.724609 9.48372 2.51461 9.48372 4.72461C9.48372 6.93461 7.69372 8.72461 5.48372 8.72461ZM5.48372 7.39128C6.95706 7.39128 8.15039 6.19794 8.15039 4.72461C8.15039 3.25128 6.95706 2.05794 5.48372 2.05794C4.01039 2.05794 2.81706 3.25128 2.81706 4.72461C2.81706 6.19794 4.01039 7.39128 5.48372 7.39128ZM11.0062 9.85981C12.86 10.6953 14.1504 12.5593 14.1504 14.7246H12.8171C12.8171 13.1006 11.8493 11.7027 10.4589 11.076L11.0062 9.85981ZM10.5479 2.33342C11.88 2.88263 12.8171 4.19368 12.8171 5.72461C12.8171 7.63808 11.3532 9.20808 9.48372 9.37634V8.03434C10.6149 7.87274 11.4837 6.90061 11.4837 5.72461C11.4837 4.80418 10.9515 4.00863 10.1777 3.62884L10.5479 2.33342Z" fill="#00A551"/>
</svg>
