<svg width="15" height="15" viewBox="0 0 15 15" fill="none" xmlns="http://www.w3.org/2000/svg">
<path id="Vector" d="M0.679688 5.61925C0.679688 6.04882 1.02791 6.39703 1.45747 6.39703H7.67969C8.10925 6.39703 8.45747 6.04882 8.45747 5.61925V0.952582C8.45747 0.523031 8.10925 0.174805 7.67969 0.174805H1.45747C1.02791 0.174805 0.679688 0.523031 0.679688 0.952582V5.61925ZM6.90191 13.397C6.90191 13.8266 7.25012 14.1748 7.67969 14.1748H13.9019C14.3315 14.1748 14.6797 13.8266 14.6797 13.397V8.73036C14.6797 8.30079 14.3315 7.95258 13.9019 7.95258H7.67969C7.25012 7.95258 6.90191 8.30079 6.90191 8.73036V13.397ZM8.45747 9.50814H13.1241V12.6192H8.45747V9.50814ZM0.679688 13.397C0.679688 13.8266 1.02791 14.1748 1.45747 14.1748H4.56858C4.99814 14.1748 5.34635 13.8266 5.34635 13.397V8.73036C5.34635 8.30079 4.99814 7.95258 4.56858 7.95258H1.45747C1.02791 7.95258 0.679688 8.30079 0.679688 8.73036V13.397ZM2.23524 12.6192V9.50814H3.7908V12.6192H2.23524ZM2.23524 4.84147V1.73036H6.90191V4.84147H2.23524ZM13.9019 6.39703C14.3315 6.39703 14.6797 6.04882 14.6797 5.61925V0.952582C14.6797 0.523031 14.3315 0.174805 13.9019 0.174805H10.7908C10.3612 0.174805 10.013 0.523031 10.013 0.952582V5.61925C10.013 6.04882 10.3612 6.39703 10.7908 6.39703H13.9019ZM13.1241 4.84147H11.5686V1.73036H13.1241V4.84147Z" fill="#00A551"/>
</svg>
