<svg width="15" height="15" viewBox="0 0 15 15" fill="none" xmlns="http://www.w3.org/2000/svg">
<path d="M4.3999 3.1252V1.0252C4.3999 0.638599 4.71331 0.325195 5.0999 0.325195H10.6999C11.0865 0.325195 11.3999 0.638599 11.3999 1.0252V3.1252H14.1999C14.5865 3.1252 14.8999 3.4386 14.8999 3.8252V13.6252C14.8999 14.0118 14.5865 14.3252 14.1999 14.3252H1.5999C1.21331 14.3252 0.899902 14.0118 0.899902 13.6252V3.8252C0.899902 3.4386 1.21331 3.1252 1.5999 3.1252H4.3999ZM2.2999 10.8252V12.9252H13.4999V10.8252H2.2999ZM2.2999 9.42519H13.4999V4.5252H2.2999V9.42519ZM5.7999 1.7252V3.1252H9.9999V1.7252H5.7999ZM7.1999 7.3252H8.5999V8.72519H7.1999V7.3252Z" fill="#00A551"/>
</svg>
