<svg width="12" height="15" viewBox="0 0 12 15" fill="none" xmlns="http://www.w3.org/2000/svg">
<path d="M11.253 3.58457L7.89053 0.22207C7.79678 0.12832 7.67021 0.0751953 7.5374 0.0751953H0.899902C0.62334 0.0751953 0.399902 0.298633 0.399902 0.575195V13.5752C0.399902 13.8518 0.62334 14.0752 0.899902 14.0752H10.8999C11.1765 14.0752 11.3999 13.8518 11.3999 13.5752V3.93926C11.3999 3.80645 11.3468 3.67832 11.253 3.58457ZM10.2468 4.16895H7.30615V1.22832L10.2468 4.16895ZM10.2749 12.9502H1.5249V1.2002H6.24365V4.5752C6.24365 4.74924 6.31279 4.91616 6.43586 5.03923C6.55893 5.1623 6.72585 5.23145 6.8999 5.23145H10.2749V12.9502ZM5.7749 8.73145H2.8999C2.83115 8.73145 2.7749 8.78769 2.7749 8.85645V9.60645C2.7749 9.6752 2.83115 9.73145 2.8999 9.73145H5.7749C5.84365 9.73145 5.8999 9.6752 5.8999 9.60645V8.85645C5.8999 8.78769 5.84365 8.73145 5.7749 8.73145ZM2.7749 6.73145V7.48145C2.7749 7.5502 2.83115 7.60645 2.8999 7.60645H8.8999C8.96865 7.60645 9.0249 7.5502 9.0249 7.48145V6.73145C9.0249 6.6627 8.96865 6.60645 8.8999 6.60645H2.8999C2.83115 6.60645 2.7749 6.6627 2.7749 6.73145Z" fill="#00A551"/>
</svg>
