<svg width="15" height="15" viewBox="0 0 15 15" fill="none" xmlns="http://www.w3.org/2000/svg">
<path d="M2.78267 0.888382C3.78121 0.53339 4.93901 0.755505 5.73824 1.55473C6.64595 2.46243 6.80928 3.83261 6.22819 4.90673L14.8999 13.5793L13.7547 14.7246L5.08277 6.05249C4.00854 6.63401 2.63793 6.47083 1.73003 5.56295C0.930574 4.76349 0.708556 3.60525 1.06398 2.60653L2.87523 4.41775C3.34959 4.8921 4.11868 4.8921 4.59304 4.41775C5.0674 3.94339 5.0674 3.1743 4.59304 2.69994L2.78267 0.888382ZM11.178 2.41364L13.7547 0.98213L14.8999 2.12734L13.4684 4.70405L12.0368 4.99034L10.319 6.70818L9.17385 5.56295L10.8916 3.84514L11.178 2.41364ZM5.73824 8.99857L6.88346 10.1438L2.58893 14.4383C2.2727 14.7545 1.75997 14.7545 1.44373 14.4383C1.15008 14.1446 1.12911 13.6815 1.3808 13.3637L1.44373 13.2931L5.73824 8.99857Z" fill="#00A551"/>
</svg>
