<svg width="12" height="15" viewBox="0 0 12 15" fill="none" xmlns="http://www.w3.org/2000/svg">
<path d="M0.566406 14.8252C0.566406 11.8797 2.95422 9.49186 5.89974 9.49186C8.84527 9.49186 11.2331 11.8797 11.2331 14.8252H9.89974C9.89974 12.6161 8.10887 10.8252 5.89974 10.8252C3.6906 10.8252 1.89974 12.6161 1.89974 14.8252H0.566406ZM5.89974 8.8252C3.68974 8.8252 1.89974 7.0352 1.89974 4.8252C1.89974 2.6152 3.68974 0.825195 5.89974 0.825195C8.10974 0.825195 9.89974 2.6152 9.89974 4.8252C9.89974 7.0352 8.10974 8.8252 5.89974 8.8252ZM5.89974 7.49186C7.37307 7.49186 8.56641 6.29853 8.56641 4.8252C8.56641 3.35186 7.37307 2.15853 5.89974 2.15853C4.42641 2.15853 3.23307 3.35186 3.23307 4.8252C3.23307 6.29853 4.42641 7.49186 5.89974 7.49186Z" fill="#00A551"/>
</svg>
